<?xml version="1.0" encoding="UTF-8" standalone="no"?>
<!-- Generator: Adobe Illustrator 14.0.0, SVG Export Plug-In . SVG Version: 6.00 Build 43363)  -->

<svg
   xmlns:dc="http://purl.org/dc/elements/1.1/"
   xmlns:cc="http://creativecommons.org/ns#"
   xmlns:rdf="http://www.w3.org/1999/02/22-rdf-syntax-ns#"
   xmlns:svg="http://www.w3.org/2000/svg"
   xmlns="http://www.w3.org/2000/svg"
   xmlns:xlink="http://www.w3.org/1999/xlink"
   xmlns:sodipodi="http://sodipodi.sourceforge.net/DTD/sodipodi-0.dtd"
   xmlns:inkscape="http://www.inkscape.org/namespaces/inkscape"
   version="1.1"
   id="Capa_1"
   x="0px"
   y="0px"
   width="841.89px"
   height="595.28px"
   viewBox="0 0 841.89 595.28"
   enable-background="new 0 0 841.89 595.28"
   xml:space="preserve"
   inkscape:version="0.91 r13725"
   sodipodi:docname="gpl-by-christian-candena-cc-by.svg"
   sodipodi:version="0.32"
   inkscape:output_extension="org.inkscape.output.svg.inkscape"><metadata
     id="metadata507"><rdf:RDF><cc:Work
         rdf:about=""><dc:format>image/svg+xml</dc:format><dc:type
           rdf:resource="http://purl.org/dc/dcmitype/StillImage" /><dc:title></dc:title><cc:license
           rdf:resource="http://creativecommons.org/licenses/by/3.0/" /></cc:Work><cc:License
         rdf:about="http://creativecommons.org/licenses/by/3.0/"><cc:permits
           rdf:resource="http://creativecommons.org/ns#Reproduction" /><cc:permits
           rdf:resource="http://creativecommons.org/ns#Distribution" /><cc:requires
           rdf:resource="http://creativecommons.org/ns#Notice" /><cc:requires
           rdf:resource="http://creativecommons.org/ns#Attribution" /><cc:permits
           rdf:resource="http://creativecommons.org/ns#DerivativeWorks" /></cc:License></rdf:RDF></metadata><defs
     id="defs505"><linearGradient
       id="linearGradient4471"><stop
         style="stop-color:#696a6b;stop-opacity:1;"
         offset="0"
         id="stop4473" /><stop
         style="stop-color:#9b9c9e;stop-opacity:1;"
         offset="1"
         id="stop4475" /></linearGradient><linearGradient
       id="linearGradient4455"><stop
         style="stop-color:#696a6b;stop-opacity:1;"
         offset="0"
         id="stop4457" /><stop
         style="stop-color:#9b9c9e;stop-opacity:1;"
         offset="1"
         id="stop4459" /></linearGradient><linearGradient
       id="linearGradient4260"><stop
         style="stop-color:#911d21;stop-opacity:1;"
         offset="0"
         id="stop4262" /><stop
         style="stop-color:#c4282d;stop-opacity:1;"
         offset="1"
         id="stop4264" /></linearGradient><linearGradient
       id="linearGradient4235"><stop
         style="stop-color:#592350;stop-opacity:1;"
         offset="0"
         id="stop4237" /><stop
         style="stop-color:#742e68;stop-opacity:1;"
         offset="1"
         id="stop4239" /></linearGradient><linearGradient
       id="linearGradient4197"><stop
         style="stop-color:#16813d;stop-opacity:1;"
         offset="0"
         id="stop4199" /><stop
         style="stop-color:#0d4f25;stop-opacity:1;"
         offset="1"
         id="stop4201" /></linearGradient><linearGradient
       id="linearGradient3598"><stop
         style="stop-color:#742e68;stop-opacity:1;"
         offset="0"
         id="stop3600" /><stop
         style="stop-color:#481c40;stop-opacity:1;"
         offset="1"
         id="stop3602" /></linearGradient><linearGradient
       inkscape:collect="always"
       id="linearGradient3584"><stop
         style="stop-color:#ffffff;stop-opacity:1;"
         offset="0"
         id="stop3586" /><stop
         style="stop-color:#ffffff;stop-opacity:0;"
         offset="1"
         id="stop3588" /></linearGradient><linearGradient
       inkscape:collect="always"
       id="linearGradient3542"><stop
         style="stop-color:#ffffff;stop-opacity:1;"
         offset="0"
         id="stop3544" /><stop
         style="stop-color:#ffffff;stop-opacity:0;"
         offset="1"
         id="stop3546" /></linearGradient><linearGradient
       id="linearGradient3536"><stop
         style="stop-color:#ffffff;stop-opacity:1"
         offset="0"
         id="stop3538" /><stop
         style="stop-color:#ffffff;stop-opacity:0"
         offset="1"
         id="stop3540" /></linearGradient><linearGradient
       id="linearGradient3530"><stop
         style="stop-color:#ffffff;stop-opacity:1"
         offset="0"
         id="stop3532" /><stop
         style="stop-color:#7f1a1d;stop-opacity:1;"
         offset="1"
         id="stop3534" /></linearGradient><linearGradient
       id="linearGradient3483"><stop
         id="stop3485"
         offset="0"
         style="stop-color:#c4282d;stop-opacity:1;" /><stop
         id="stop3487"
         offset="1"
         style="stop-color:#7f1a1d;stop-opacity:1;" /></linearGradient><linearGradient
       id="linearGradient3467"><stop
         style="stop-color:#000000;stop-opacity:1;"
         offset="0"
         id="stop3469" /><stop
         style="stop-color:#000000;stop-opacity:0;"
         offset="1"
         id="stop3471" /></linearGradient><inkscape:perspective
       sodipodi:type="inkscape:persp3d"
       inkscape:vp_x="0 : 297.64001 : 1"
       inkscape:vp_y="0 : 1000 : 0"
       inkscape:vp_z="841.89001 : 297.64001 : 1"
       inkscape:persp3d-origin="420.94501 : 198.42668 : 1"
       id="perspective509" /><linearGradient
       inkscape:collect="always"
       xlink:href="#linearGradient3483"
       id="linearGradient3481"
       x1="193.67853"
       y1="227.42769"
       x2="192.737"
       y2="164.42589"
       gradientUnits="userSpaceOnUse" /><linearGradient
       inkscape:collect="always"
       xlink:href="#linearGradient3542"
       id="linearGradient3548"
       x1="223.70312"
       y1="167.78789"
       x2="223.70312"
       y2="224.78125"
       gradientUnits="userSpaceOnUse" /><linearGradient
       inkscape:collect="always"
       xlink:href="#linearGradient3584"
       id="linearGradient3590"
       x1="234.03793"
       y1="165.15395"
       x2="234.35178"
       y2="210.66147"
       gradientUnits="userSpaceOnUse" /><linearGradient
       inkscape:collect="always"
       xlink:href="#linearGradient3483"
       id="linearGradient3947"
       gradientUnits="userSpaceOnUse"
       x1="193.67853"
       y1="227.42769"
       x2="192.737"
       y2="164.42589" /><linearGradient
       inkscape:collect="always"
       xlink:href="#linearGradient3598"
       id="linearGradient3620"
       x1="473.95499"
       y1="225.58197"
       x2="473.95499"
       y2="164.577"
       gradientUnits="userSpaceOnUse" /><linearGradient
       inkscape:collect="always"
       xlink:href="#linearGradient3483"
       id="linearGradient3883"
       gradientUnits="userSpaceOnUse"
       gradientTransform="translate(2.7507074,-101.77618)"
       x1="138.40564"
       y1="330.10239"
       x2="138.40564"
       y2="319.71936" /><linearGradient
       inkscape:collect="always"
       xlink:href="#linearGradient3598"
       id="linearGradient3891"
       gradientUnits="userSpaceOnUse"
       x1="473.95499"
       y1="225.58197"
       x2="473.95499"
       y2="164.577" /><linearGradient
       inkscape:collect="always"
       xlink:href="#linearGradient3598"
       id="linearGradient4005"
       gradientUnits="userSpaceOnUse"
       x1="473.95499"
       y1="225.58197"
       x2="473.95499"
       y2="164.577" /><linearGradient
       inkscape:collect="always"
       xlink:href="#linearGradient3598"
       id="linearGradient2938"
       gradientUnits="userSpaceOnUse"
       gradientTransform="translate(16.564834,16.038773)"
       x1="365.68323"
       y1="228.72025"
       x2="365.68323"
       y2="216.25424" /><linearGradient
       inkscape:collect="always"
       xlink:href="#linearGradient4471"
       id="linearGradient4477"
       x1="664.09625"
       y1="501.10046"
       x2="664.09625"
       y2="510.29501"
       gradientUnits="userSpaceOnUse" /><linearGradient
       inkscape:collect="always"
       xlink:href="#linearGradient4471"
       id="linearGradient4513"
       gradientUnits="userSpaceOnUse"
       x1="664.09625"
       y1="501.10046"
       x2="664.09625"
       y2="510.29501" /></defs><sodipodi:namedview
     pagecolor="#ffffff"
     bordercolor="#666666"
     borderopacity="1"
     objecttolerance="10"
     gridtolerance="10"
     guidetolerance="10"
     inkscape:pageopacity="0"
     inkscape:pageshadow="2"
     inkscape:window-width="1920"
     inkscape:window-height="1012"
     id="namedview503"
     showgrid="false"
     inkscape:zoom="3.6218248"
     inkscape:cx="398.97744"
     inkscape:cy="441.46696"
     inkscape:window-x="-4"
     inkscape:window-y="0"
     inkscape:window-maximized="1"
     inkscape:current-layer="Capa_1"
     showguides="true"
     inkscape:guide-bbox="true" /><g
     id="g5552"><g
       style="fill:#999999"
       transform="translate(199.35628,-60.166551)"
       id="g89"><path
         inkscape:connector-curvature="0"
         d="m 236.283,164.577 19.455,0 -29.968,50.5 c -1.711,2.815 -3.381,4.981 -5.009,6.499 -1.628,1.518 -3.132,2.622 -4.512,3.311 -1.38,0.691 -2.566,1.091 -3.56,1.201 -0.993,0.111 -1.685,0.166 -2.07,0.166 l -17.882,0 0,-43.628 16.723,0 0.083,29.968 26.74,-48.017 z"
         id="path91"
         style="fill:#999999" /></g><rect
       style="fill:#999999"
       id="rect95"
       height="14.173"
       width="116.818"
       y="166.08646"
       x="275.27527" /><g
       transform="translate(199.35628,-60.166551)"
       id="g97"><path
         style="fill:#ffffff"
         id="path99"
         d="m 101.065,231.774 c 0.036,-0.249 -0.007,-0.421 -0.131,-0.516 l 0.007,0 c -0.114,-0.086 -0.278,-0.129 -0.497,-0.129 l -4.098,0 c -0.245,0 -0.472,0.056 -0.68,0.169 -0.185,0.096 -0.3,0.208 -0.348,0.34 l -0.435,1.196 3.024,0 -0.305,0.836 -3.024,0 -0.93,2.555 -0.843,0 1.67,-4.587 c 0.136,-0.375 0.422,-0.698 0.854,-0.965 0.42,-0.257 0.862,-0.387 1.323,-0.387 l 4.098,0 c 0.435,0 0.758,0.121 0.971,0.36 0.234,0.24 0.299,0.616 0.194,1.128 l -0.85,0 0,0 z"
         inkscape:connector-curvature="0" /><path
         style="fill:#ffffff"
         id="path101"
         d="m 107.115,233.377 c 0.017,-0.235 -0.054,-0.396 -0.212,-0.482 -0.059,-0.036 -0.125,-0.062 -0.2,-0.075 -0.075,-0.013 -0.153,-0.02 -0.234,-0.02 l -1.979,0 c -0.199,0 -0.397,0.038 -0.592,0.116 -0.226,0.086 -0.362,0.194 -0.41,0.326 l -1.086,2.983 -0.843,0 1.551,-4.261 0.843,0 -0.064,0.176 c 0.167,-0.063 0.322,-0.108 0.467,-0.136 0.143,-0.027 0.288,-0.041 0.433,-0.041 l 1.984,0 c 0.376,0 0.683,0.095 0.922,0.285 0.287,0.231 0.372,0.607 0.255,1.128 l -0.835,0 0,0.001 z"
         inkscape:connector-curvature="0" /><path
         style="fill:#ffffff"
         id="path103"
         d="m 114.616,233.228 c -0.144,0.395 -0.456,0.718 -0.938,0.972 -0.397,0.208 -0.801,0.312 -1.208,0.312 l -1.979,0 c -0.131,0 -0.253,-0.01 -0.368,-0.033 -0.114,-0.022 -0.252,-0.065 -0.415,-0.129 l -0.208,0.57 -0.005,0.014 c -0.03,0.118 0.041,0.225 0.21,0.32 0.072,0.05 0.148,0.084 0.227,0.106 0.079,0.02 0.16,0.03 0.24,0.03 l 1.979,0 c 0.081,0 0.164,-0.007 0.248,-0.02 0.085,-0.014 0.169,-0.04 0.255,-0.075 0.221,-0.087 0.409,-0.248 0.563,-0.483 l 0.835,0 c -0.26,0.516 -0.617,0.89 -1.073,1.122 -0.374,0.194 -0.751,0.292 -1.132,0.292 l -1.978,0 c -0.381,0 -0.7,-0.099 -0.958,-0.299 -0.322,-0.25 -0.409,-0.578 -0.261,-0.985 l 0.621,-1.706 c 0.147,-0.404 0.453,-0.725 0.916,-0.966 0.39,-0.204 0.801,-0.305 1.232,-0.305 l 1.978,0 c 0.417,0 0.748,0.097 0.995,0.292 0.298,0.24 0.373,0.563 0.224,0.971 z m -0.848,0.014 c 0.04,-0.108 0,-0.204 -0.12,-0.285 -0.129,-0.104 -0.317,-0.156 -0.561,-0.156 l -1.971,0 c -0.172,0 -0.368,0.038 -0.585,0.116 -0.229,0.082 -0.367,0.188 -0.415,0.319 -0.046,0.126 0.012,0.233 0.175,0.319 0.147,0.082 0.316,0.122 0.506,0.122 l 1.979,0 c 0.235,0 0.457,-0.049 0.666,-0.149 0.177,-0.082 0.287,-0.177 0.326,-0.286 z"
         inkscape:connector-curvature="0" /><path
         style="fill:#ffffff"
         id="path105"
         d="m 121.25,233.228 c -0.144,0.395 -0.456,0.718 -0.938,0.972 -0.397,0.208 -0.801,0.312 -1.208,0.312 l -1.978,0 c -0.132,0 -0.253,-0.01 -0.369,-0.033 -0.114,-0.022 -0.252,-0.065 -0.414,-0.129 l -0.208,0.57 -0.005,0.014 c -0.03,0.118 0.04,0.225 0.209,0.32 0.073,0.05 0.148,0.084 0.227,0.106 0.079,0.02 0.16,0.03 0.24,0.03 l 1.979,0 c 0.081,0 0.164,-0.007 0.248,-0.02 0.085,-0.014 0.17,-0.04 0.255,-0.075 0.221,-0.087 0.409,-0.248 0.563,-0.483 l 0.835,0 c -0.26,0.516 -0.617,0.89 -1.073,1.122 -0.374,0.194 -0.751,0.292 -1.132,0.292 l -1.979,0 c -0.38,0 -0.7,-0.099 -0.958,-0.299 -0.322,-0.25 -0.409,-0.578 -0.26,-0.985 l 0.621,-1.706 c 0.147,-0.404 0.453,-0.725 0.917,-0.966 0.39,-0.204 0.801,-0.305 1.231,-0.305 l 1.979,0 c 0.416,0 0.748,0.097 0.994,0.292 0.298,0.24 0.372,0.563 0.224,0.971 z m -0.848,0.014 c 0.04,-0.108 -0.001,-0.204 -0.121,-0.285 -0.129,-0.104 -0.317,-0.156 -0.561,-0.156 l -1.971,0 c -0.172,0 -0.368,0.038 -0.585,0.116 -0.229,0.082 -0.367,0.188 -0.415,0.319 -0.046,0.126 0.013,0.233 0.176,0.319 0.147,0.082 0.316,0.122 0.506,0.122 l 1.978,0 c 0.235,0 0.457,-0.049 0.666,-0.149 0.178,-0.082 0.287,-0.177 0.327,-0.286 z"
         inkscape:connector-curvature="0" /><path
         style="fill:#ffffff"
         id="path107"
         d="m 133.99,235.845 c -0.404,0.253 -0.84,0.38 -1.306,0.38 l -4.112,0 c -0.431,0 -0.753,-0.116 -0.968,-0.347 -0.231,-0.249 -0.296,-0.629 -0.196,-1.141 l 0.836,0 c -0.029,0.24 0.017,0.412 0.138,0.516 l -0.007,0 c 0.122,0.09 0.289,0.136 0.501,0.136 l 4.112,0 c 0.24,0 0.464,-0.057 0.672,-0.169 0.19,-0.101 0.31,-0.215 0.358,-0.347 l 0.247,-0.68 c 0.048,-0.131 0.013,-0.247 -0.105,-0.347 -0.125,-0.113 -0.312,-0.17 -0.556,-0.17 l -4.105,0 c -0.461,0 -0.808,-0.126 -1.037,-0.38 -0.244,-0.264 -0.296,-0.588 -0.154,-0.979 l 0.248,-0.68 c 0.136,-0.375 0.422,-0.698 0.854,-0.965 0.42,-0.257 0.862,-0.387 1.323,-0.387 l 4.112,0 c 0.431,0 0.75,0.121 0.962,0.36 0.234,0.24 0.3,0.616 0.194,1.128 l -0.835,0 c 0.028,-0.24 -0.018,-0.413 -0.14,-0.516 l 0.007,0 c -0.113,-0.086 -0.279,-0.129 -0.496,-0.129 l -4.112,0 c -0.245,0 -0.474,0.056 -0.687,0.169 -0.185,0.096 -0.3,0.208 -0.348,0.34 l -0.248,0.68 c -0.05,0.136 -0.018,0.254 0.096,0.354 0.125,0.113 0.314,0.169 0.563,0.169 l 4.112,0 c 0.466,0 0.81,0.127 1.029,0.381 0.243,0.267 0.295,0.59 0.156,0.972 l -0.247,0.68 c -0.137,0.385 -0.425,0.71 -0.861,0.972 z"
         inkscape:connector-curvature="0" /><path
         style="fill:#ffffff"
         id="path109"
         d="m 140.523,235.913 c -0.393,0.208 -0.796,0.312 -1.208,0.312 l -1.979,0 c -0.403,0 -0.73,-0.102 -0.982,-0.305 -0.305,-0.25 -0.382,-0.577 -0.236,-0.979 l 0.621,-1.706 c 0.144,-0.395 0.456,-0.718 0.939,-0.972 0.397,-0.208 0.802,-0.312 1.214,-0.312 l 1.979,0 c 0.389,0 0.709,0.097 0.96,0.292 0.315,0.254 0.4,0.582 0.253,0.985 l -0.623,1.713 c -0.143,0.393 -0.455,0.718 -0.938,0.972 z m 0.718,-2.685 c 0.046,-0.127 -0.012,-0.232 -0.175,-0.32 -0.139,-0.077 -0.307,-0.115 -0.501,-0.115 l -1.979,0 c -0.199,0 -0.394,0.036 -0.583,0.108 -0.232,0.091 -0.372,0.199 -0.418,0.326 l -0.625,1.72 c -0.046,0.127 0.012,0.233 0.175,0.319 0.147,0.081 0.314,0.122 0.5,0.122 l 1.984,0 c 0.09,0 0.183,-0.009 0.282,-0.027 0.097,-0.019 0.196,-0.047 0.296,-0.089 0.232,-0.09 0.372,-0.201 0.42,-0.332 l 0.624,-1.712 z"
         inkscape:connector-curvature="0" /><path
         style="fill:#ffffff"
         id="path111"
         d="m 144.375,232.8 -1.247,3.425 -0.843,0 1.696,-4.662 c 0.146,-0.399 0.418,-0.718 0.819,-0.959 0.352,-0.208 0.792,-0.312 1.323,-0.312 l -0.299,0.823 c -0.331,0.049 -0.571,0.113 -0.723,0.189 -0.15,0.078 -0.242,0.165 -0.277,0.259 l -0.146,0.401 0.842,0 -0.304,0.836 -0.841,0 z"
         inkscape:connector-curvature="0" /><path
         style="fill:#ffffff"
         id="path113"
         d="m 148.193,232.8 -1.247,3.425 -0.849,0 1.247,-3.425 -0.836,0 0.304,-0.836 0.836,0 0.611,-1.678 0.849,0 -0.611,1.678 0.843,0 -0.304,0.836 -0.843,0 z"
         inkscape:connector-curvature="0" /><path
         style="fill:#ffffff"
         id="path115"
         d="m 154.629,235.898 c -0.357,0.213 -0.762,0.32 -1.21,0.32 -0.244,0 -0.473,-0.035 -0.683,-0.103 -0.211,-0.068 -0.39,-0.174 -0.538,-0.319 -0.254,0.141 -0.516,0.247 -0.785,0.319 -0.269,0.073 -0.526,0.109 -0.771,0.109 -0.431,0 -0.752,-0.104 -0.966,-0.312 -0.236,-0.236 -0.279,-0.56 -0.129,-0.972 l 1.083,-2.977 0.843,0 -1.086,2.983 c -0.046,0.127 -0.007,0.23 0.117,0.312 0.137,0.086 0.327,0.129 0.571,0.129 0.249,0 0.469,-0.043 0.659,-0.129 0.187,-0.077 0.304,-0.183 0.354,-0.318 l 0.668,-1.835 0.843,0 -0.67,1.842 c -0.048,0.132 -0.008,0.233 0.12,0.306 0.136,0.086 0.322,0.129 0.558,0.129 0.253,0 0.475,-0.043 0.665,-0.129 0.188,-0.077 0.302,-0.179 0.349,-0.306 l 1.086,-2.983 0.85,0 -1.083,2.977 c -0.144,0.398 -0.427,0.718 -0.845,0.957 z"
         inkscape:connector-curvature="0" /><path
         style="fill:#ffffff"
         id="path117"
         d="m 160.977,235.92 c -0.396,0.204 -0.804,0.305 -1.226,0.305 l -1.978,0 c -0.426,0 -0.762,-0.099 -1.005,-0.299 -0.294,-0.236 -0.368,-0.559 -0.217,-0.972 0.145,-0.398 0.457,-0.72 0.936,-0.965 0.397,-0.208 0.803,-0.313 1.214,-0.313 l 1.979,0 c 0.127,0 0.247,0.013 0.361,0.035 0.115,0.022 0.252,0.065 0.415,0.129 l 0.21,-0.578 c 0.027,-0.122 -0.04,-0.23 -0.2,-0.326 -0.144,-0.09 -0.299,-0.136 -0.466,-0.136 l -1.978,0 c -0.085,0 -0.171,0.007 -0.255,0.02 -0.084,0.014 -0.169,0.04 -0.255,0.075 -0.221,0.086 -0.409,0.248 -0.562,0.482 l -0.836,0 c 0.265,-0.516 0.621,-0.89 1.068,-1.121 0.375,-0.195 0.753,-0.292 1.139,-0.292 l 1.984,0 c 0.389,0 0.71,0.097 0.96,0.292 0.318,0.245 0.403,0.573 0.253,0.985 l -0.621,1.706 c -0.15,0.405 -0.456,0.728 -0.92,0.973 z m 0.072,-0.966 c 0.046,-0.126 -0.012,-0.233 -0.176,-0.319 -0.147,-0.082 -0.313,-0.123 -0.499,-0.123 l -1.979,0 c -0.231,0 -0.455,0.051 -0.672,0.151 -0.179,0.081 -0.288,0.176 -0.328,0.285 -0.042,0.113 -0.004,0.21 0.11,0.292 0.137,0.099 0.325,0.149 0.565,0.149 l 1.984,0 c 0.195,0 0.387,-0.036 0.576,-0.109 0.234,-0.09 0.372,-0.198 0.419,-0.326 z"
         inkscape:connector-curvature="0" /><path
         style="fill:#ffffff"
         id="path119"
         d="m 168.276,233.377 c 0.017,-0.235 -0.054,-0.396 -0.212,-0.482 -0.059,-0.036 -0.125,-0.062 -0.2,-0.075 -0.075,-0.013 -0.153,-0.02 -0.234,-0.02 l -1.978,0 c -0.199,0 -0.397,0.038 -0.593,0.116 -0.226,0.086 -0.362,0.194 -0.41,0.326 l -1.086,2.983 -0.843,0 1.551,-4.261 0.843,0 -0.064,0.176 c 0.167,-0.063 0.323,-0.108 0.467,-0.136 0.144,-0.027 0.288,-0.041 0.433,-0.041 l 1.984,0 c 0.376,0 0.683,0.095 0.922,0.285 0.287,0.231 0.372,0.607 0.255,1.128 l -0.835,0 0,0.001 z"
         inkscape:connector-curvature="0" /><path
         style="fill:#ffffff"
         id="path121"
         d="m 175.777,233.228 c -0.144,0.395 -0.456,0.718 -0.938,0.972 -0.397,0.208 -0.801,0.312 -1.208,0.312 l -1.978,0 c -0.132,0 -0.253,-0.01 -0.369,-0.033 -0.114,-0.022 -0.252,-0.065 -0.415,-0.129 l -0.208,0.57 -0.005,0.014 c -0.029,0.118 0.041,0.225 0.21,0.32 0.072,0.05 0.148,0.084 0.227,0.106 0.079,0.02 0.16,0.03 0.24,0.03 l 1.979,0 c 0.081,0 0.164,-0.007 0.248,-0.02 0.085,-0.014 0.17,-0.04 0.255,-0.075 0.221,-0.087 0.409,-0.248 0.563,-0.483 l 0.835,0 c -0.26,0.516 -0.617,0.89 -1.073,1.122 -0.374,0.194 -0.751,0.292 -1.132,0.292 l -1.979,0 c -0.381,0 -0.7,-0.099 -0.958,-0.299 -0.322,-0.25 -0.409,-0.578 -0.261,-0.985 l 0.621,-1.706 c 0.147,-0.404 0.453,-0.725 0.916,-0.966 0.391,-0.204 0.801,-0.305 1.232,-0.305 l 1.979,0 c 0.416,0 0.748,0.097 0.994,0.292 0.3,0.24 0.374,0.563 0.225,0.971 z m -0.848,0.014 c 0.04,-0.108 0,-0.204 -0.12,-0.285 -0.129,-0.104 -0.317,-0.156 -0.561,-0.156 l -1.971,0 c -0.172,0 -0.368,0.038 -0.585,0.116 -0.229,0.082 -0.367,0.188 -0.415,0.319 -0.046,0.126 0.013,0.233 0.176,0.319 0.147,0.082 0.316,0.122 0.506,0.122 l 1.978,0 c 0.235,0 0.457,-0.049 0.666,-0.149 0.178,-0.082 0.287,-0.177 0.326,-0.286 z"
         inkscape:connector-curvature="0" /></g><g
       transform="translate(199.35628,-60.166551)"
       id="g123"><path
         inkscape:connector-curvature="0"
         d="m 112.576,215.739 c -1.287,1.009 -2.842,1.514 -4.666,1.514 l -16.194,0 c -1.842,0 -3.379,-0.496 -4.612,-1.487 -1.323,-1.027 -1.984,-2.293 -1.984,-3.798 l 0,-12.643 c 0,-1.469 0.661,-2.726 1.984,-3.771 1.287,-1.009 2.843,-1.514 4.666,-1.514 l 16.222,0 c 1.698,0 3.137,0.469 4.317,1.408 1.233,0.938 2.028,2.417 2.386,4.436 l -3.298,0 c -0.232,-0.974 -0.67,-1.656 -1.314,-2.045 -0.554,-0.336 -1.26,-0.504 -2.118,-0.504 l -16.195,0 c -0.966,0 -1.788,0.222 -2.467,0.664 -0.589,0.372 -0.885,0.814 -0.885,1.328 l 0,12.643 c 0,0.531 0.295,0.992 0.885,1.381 l -0.026,-0.026 c 0.661,0.443 1.475,0.664 2.44,0.664 l 16.195,0 c 0.84,0 1.59,-0.177 2.252,-0.531 0.787,-0.372 1.18,-0.876 1.18,-1.514 l 0,-4.648 -13.113,0 0,-3.267 16.383,0 0,7.941 c 0,1.468 -0.68,2.724 -2.038,3.769 z"
         id="path125" /><path
         inkscape:connector-curvature="0"
         d="m 147.191,205.779 c -1.233,0.992 -2.78,1.487 -4.639,1.487 l -19.547,0 0,9.986 -3.298,0 0,-17.928 c 0,-1.469 0.661,-2.726 1.984,-3.771 1.287,-1.009 2.842,-1.514 4.666,-1.514 l 16.195,0 c 1.805,0 3.343,0.505 4.612,1.514 1.341,1.045 2.011,2.302 2.011,3.771 l 0,2.656 c 0,1.506 -0.661,2.772 -1.984,3.799 z m -1.287,-6.454 c 0,-0.495 -0.304,-0.938 -0.912,-1.328 -0.68,-0.442 -1.493,-0.664 -2.44,-0.664 l -16.222,0 c -0.822,0 -1.564,0.168 -2.226,0.504 -0.733,0.337 -1.099,0.833 -1.099,1.487 l 0,4.676 19.547,0 c 0.947,0 1.76,-0.212 2.44,-0.638 0.607,-0.389 0.912,-0.85 0.912,-1.381 l 0,-2.656 z"
         id="path127" /><path
         inkscape:connector-curvature="0"
         d="m 183.737,212.074 c -0.268,1.576 -1.019,2.842 -2.252,3.798 -1.198,0.92 -2.646,1.381 -4.343,1.381 l -16.222,0 c -1.823,0 -3.37,-0.496 -4.639,-1.487 -1.34,-1.027 -2.011,-2.293 -2.011,-3.798 l 0,-17.901 3.352,0 0,17.901 c 0,0.531 0.295,0.992 0.885,1.381 l -0.026,-0.026 c 0.661,0.443 1.474,0.664 2.44,0.664 l 16.222,0 c 0.822,0 1.537,-0.177 2.145,-0.531 l -0.027,0 c 0.644,-0.389 1.081,-1.053 1.314,-1.992 l 2.627,0 0.535,0.61 z"
         id="path129" /></g><path
       id="path133"
       d="m 469.74128,151.78745 c 0,1.505 -0.664,2.771 -1.992,3.798 -1.222,0.992 -2.745,1.487 -4.568,1.487 l -16.068,0 c -1.682,0 -3.107,-0.452 -4.276,-1.354 -1.257,-0.974 -2.054,-2.461 -2.391,-4.462 l 3.267,0 c 0.23,0.938 0.655,1.611 1.275,2.019 l -0.027,0 c 0.602,0.354 1.319,0.531 2.151,0.531 l 16.068,0 c 0.92,0 1.717,-0.213 2.391,-0.638 0.602,-0.389 0.903,-0.85 0.903,-1.381 l 0,-2.656 c 0,-0.495 -0.301,-0.938 -0.903,-1.328 -0.708,-0.46 -1.514,-0.691 -2.417,-0.691 l -8.552,0 0,-3.267 8.579,0 c 0.938,0 1.735,-0.221 2.391,-0.664 0.602,-0.389 0.903,-0.841 0.903,-1.354 l 0,-2.656 c 0,-0.496 -0.301,-0.938 -0.903,-1.328 -0.708,-0.46 -1.514,-0.69 -2.417,-0.69 l -16.042,0 c -0.814,0 -1.523,0.177 -2.125,0.531 l 0.026,0 c -0.637,0.372 -1.071,1.045 -1.301,2.019 l -3.267,0 c 0.319,-2.019 1.098,-3.488 2.337,-4.409 1.168,-0.938 2.611,-1.407 4.329,-1.407 l 16.068,0 c 1.788,0 3.311,0.496 4.568,1.487 1.328,1.045 1.992,2.311 1.992,3.798 0,1.292 -0.053,2.47 -0.159,3.532 -0.036,0.531 -0.212,1.019 -0.531,1.461 -0.142,0.195 -0.305,0.398 -0.491,0.611 -0.186,0.213 -0.412,0.443 -0.677,0.69 0.513,0.478 0.903,0.921 1.168,1.328 0.301,0.496 0.478,0.974 0.531,1.434 0.107,1.045 0.16,2.231 0.16,3.559 z"
       inkscape:connector-curvature="0" /></g></svg>